<mxfile host="app.diagrams.net" modified="2021-04-09T04:36:36.234Z" agent="5.0 (Windows NT 10.0; Win64; x64) AppleWebKit/537.36 (KHTML, like Gecko) Chrome/89.0.4389.114 Safari/537.36" etag="wfhB3jtJRrhr5efBDAd5" version="14.5.8" type="github">
  <diagram id="jeWwGcX7rtffmsNAbUVr" name="第 1 页">
    <mxGraphModel dx="1278" dy="548" grid="1" gridSize="10" guides="1" tooltips="1" connect="1" arrows="1" fold="1" page="1" pageScale="1" pageWidth="827" pageHeight="1169" math="0" shadow="0">
      <root>
        <mxCell id="0" />
        <mxCell id="1" parent="0" />
        <mxCell id="xexsJG2Hu-Wc7gK1tZci-7" style="edgeStyle=none;rounded=0;orthogonalLoop=1;jettySize=auto;html=1;entryX=0;entryY=0.5;entryDx=0;entryDy=0;" edge="1" parent="1" source="xexsJG2Hu-Wc7gK1tZci-2" target="xexsJG2Hu-Wc7gK1tZci-3">
          <mxGeometry relative="1" as="geometry" />
        </mxCell>
        <mxCell id="xexsJG2Hu-Wc7gK1tZci-2" value="管理员" style="shape=umlActor;verticalLabelPosition=bottom;verticalAlign=top;html=1;" vertex="1" parent="1">
          <mxGeometry x="160" y="260" width="50" height="80" as="geometry" />
        </mxCell>
        <mxCell id="xexsJG2Hu-Wc7gK1tZci-6" value="" style="edgeStyle=none;rounded=0;orthogonalLoop=1;jettySize=auto;html=1;" edge="1" parent="1" source="xexsJG2Hu-Wc7gK1tZci-3" target="xexsJG2Hu-Wc7gK1tZci-5">
          <mxGeometry relative="1" as="geometry" />
        </mxCell>
        <mxCell id="xexsJG2Hu-Wc7gK1tZci-9" value="" style="edgeStyle=none;rounded=0;orthogonalLoop=1;jettySize=auto;html=1;" edge="1" parent="1" source="xexsJG2Hu-Wc7gK1tZci-3" target="xexsJG2Hu-Wc7gK1tZci-8">
          <mxGeometry relative="1" as="geometry" />
        </mxCell>
        <mxCell id="xexsJG2Hu-Wc7gK1tZci-3" value="举报管理" style="ellipse;whiteSpace=wrap;html=1;" vertex="1" parent="1">
          <mxGeometry x="290" y="270" width="114" height="60" as="geometry" />
        </mxCell>
        <mxCell id="xexsJG2Hu-Wc7gK1tZci-13" value="" style="edgeStyle=none;rounded=0;orthogonalLoop=1;jettySize=auto;html=1;" edge="1" parent="1" source="xexsJG2Hu-Wc7gK1tZci-5" target="xexsJG2Hu-Wc7gK1tZci-12">
          <mxGeometry relative="1" as="geometry" />
        </mxCell>
        <mxCell id="xexsJG2Hu-Wc7gK1tZci-16" value="" style="edgeStyle=none;rounded=0;orthogonalLoop=1;jettySize=auto;html=1;" edge="1" parent="1" source="xexsJG2Hu-Wc7gK1tZci-5" target="xexsJG2Hu-Wc7gK1tZci-15">
          <mxGeometry relative="1" as="geometry" />
        </mxCell>
        <mxCell id="xexsJG2Hu-Wc7gK1tZci-5" value="审核举报" style="ellipse;whiteSpace=wrap;html=1;" vertex="1" parent="1">
          <mxGeometry x="450" y="210" width="114" height="60" as="geometry" />
        </mxCell>
        <mxCell id="xexsJG2Hu-Wc7gK1tZci-8" value="查找举报" style="ellipse;whiteSpace=wrap;html=1;" vertex="1" parent="1">
          <mxGeometry x="460" y="320" width="114" height="60" as="geometry" />
        </mxCell>
        <mxCell id="xexsJG2Hu-Wc7gK1tZci-12" value="驳回举报" style="ellipse;whiteSpace=wrap;html=1;" vertex="1" parent="1">
          <mxGeometry x="610" y="140" width="114" height="60" as="geometry" />
        </mxCell>
        <mxCell id="xexsJG2Hu-Wc7gK1tZci-15" value="举报核实" style="ellipse;whiteSpace=wrap;html=1;" vertex="1" parent="1">
          <mxGeometry x="610" y="230" width="114" height="60" as="geometry" />
        </mxCell>
        <mxCell id="xexsJG2Hu-Wc7gK1tZci-17" value="&lt;font style=&quot;font-size: 24px&quot;&gt;举报管理&lt;/font&gt;" style="text;html=1;strokeColor=none;fillColor=none;align=center;verticalAlign=middle;whiteSpace=wrap;rounded=0;" vertex="1" parent="1">
          <mxGeometry x="304" y="80" width="180" height="40" as="geometry" />
        </mxCell>
      </root>
    </mxGraphModel>
  </diagram>
</mxfile>
